<?xml version="1.0" standalone="no"?>
<!DOCTYPE svg PUBLIC "-//W3C//DTD SVG 20010904//EN"
 "http://www.w3.org/TR/2001/REC-SVG-20010904/DTD/svg10.dtd">
<svg version="1.0" xmlns="http://www.w3.org/2000/svg"
 width="1024.000000pt" height="1024.000000pt" viewBox="0 0 1024.000000 1024.000000"
 preserveAspectRatio="xMidYMid meet">
<metadata>
Created by potrace 1.14, written by Peter Selinger 2001-2017
</metadata>
<g transform="translate(0.000000,1024.000000) scale(0.100000,-0.100000)"
fill="#000000" stroke="none">
<path d="M3750 8444 c-30 -7 -74 -18 -98 -24 -47 -11 -179 -75 -235 -113 -69
-47 -174 -143 -390 -356 -239 -236 -322 -333 -378 -442 -11 -23 -60 -82 -109
-133 -93 -96 -142 -153 -200 -230 -19 -26 -44 -59 -56 -74 -26 -34 -122 -178
-149 -223 -10 -19 -36 -63 -56 -99 -20 -36 -51 -91 -69 -124 -53 -94 -150
-330 -203 -491 -154 -469 -194 -993 -116 -1504 52 -340 139 -621 288 -926 121
-249 262 -473 420 -669 31 -38 67 -83 81 -100 111 -142 376 -413 468 -478 123
-89 543 -334 715 -419 396 -194 751 -283 1273 -320 171 -12 315 -6 574 22 545
59 1021 243 1545 600 198 134 284 206 481 403 506 505 849 1180 963 1896 30
193 36 280 35 545 -1 290 -10 398 -55 635 -49 255 -136 509 -268 780 -34 69
-61 132 -61 141 0 9 11 37 26 62 14 25 30 61 36 79 12 38 31 216 32 303 1 58
2 61 52 110 176 175 160 464 -37 650 -113 106 -239 152 -384 141 -130 -9 -218
-48 -311 -137 -57 -54 -64 -58 -97 -52 -91 14 -276 -69 -398 -178 -42 -38 -82
-69 -88 -69 -13 0 -163 143 -516 491 -186 184 -242 233 -292 258 -126 63 -96
61 -1286 60 -855 -1 -1094 -4 -1137 -15z m2054 -205 c3 -17 6 -199 6 -403 0
-409 3 -438 62 -547 63 -120 218 -225 348 -236 33 -3 60 -9 60 -14 0 -4 -162
-171 -360 -371 -198 -200 -359 -365 -359 -368 0 -3 23 -23 51 -45 l52 -39 445
452 446 453 54 -55 54 -55 -194 -198 c-106 -109 -303 -309 -436 -444 -134
-135 -243 -251 -243 -258 0 -7 5 -32 11 -56 19 -76 9 -82 -67 -39 l-66 37 -47
-47 c-70 -69 -95 -62 -41 13 l31 42 -27 49 c-15 27 -37 59 -50 71 l-23 22 -38
-31 c-21 -17 -115 -108 -209 -204 -199 -202 -215 -228 -222 -359 -3 -54 0
-101 8 -124 15 -46 47 -19 -280 -233 -274 -180 -315 -211 -336 -256 -8 -17
-37 -137 -64 -266 -90 -417 -108 -501 -170 -770 -92 -400 -91 -390 -79 -432
11 -43 41 -68 82 -68 34 0 196 62 840 319 575 230 655 266 690 312 30 40 99
182 176 359 l53 125 112 0 c103 0 115 2 171 30 115 58 235 204 252 308 4 30
12 41 37 51 18 8 208 193 440 430 225 229 410 415 412 413 3 -2 7 -591 10
-1308 6 -1388 5 -1439 -40 -1551 -93 -229 -288 -396 -528 -453 -92 -22 -3387
-22 -3490 0 -153 32 -270 97 -388 215 -95 95 -150 180 -183 285 l-22 70 0
2085 c0 2349 -8 2118 78 2285 37 72 67 106 307 349 352 356 433 420 595 467
55 16 140 18 1066 18 l1007 1 6 -31z m263 1 c18 -11 92 -79 165 -152 73 -73
233 -231 355 -350 l223 -217 -136 -136 -136 -135 -142 0 c-176 0 -224 12 -295
76 -90 81 -86 54 -89 522 -3 450 -6 430 55 392z m1959 -360 c59 -30 150 -120
108 -106 -15 4 -30 -4 -57 -31 -62 -63 -107 -124 -100 -135 3 -7 1 -8 -6 -4
-6 4 -18 0 -27 -8 -19 -20 -20 -19 -165 117 l-103 97 24 25 c75 80 218 100
326 45z m189 -204 c34 -80 11 -177 -59 -251 l-37 -39 -26 26 -26 26 41 49 c75
89 99 175 67 237 -8 15 -15 31 -15 33 0 13 42 -49 55 -81z m-699 16 c23 -15
130 -110 237 -211 l196 -184 -72 -78 c-40 -44 -75 -79 -78 -79 -16 0 -529 483
-529 498 0 11 68 52 109 67 56 21 92 18 137 -13z m-357 -224 c125 -113 441
-422 439 -428 -2 -4 -65 -72 -141 -152 -76 -79 -144 -154 -153 -166 -8 -12
-21 -22 -28 -22 -22 0 -506 453 -506 473 0 15 314 337 329 337 8 0 35 -19 60
-42z m917 -390 c-9 -55 -48 -132 -69 -136 -9 -2 -28 9 -42 24 l-25 27 25 31
c13 17 41 55 62 85 34 51 37 53 46 34 5 -12 6 -41 3 -65z m-5536 -823 c-3 -5
-5 -211 -5 -457 0 -247 -4 -448 -8 -448 -18 0 -77 30 -77 39 0 6 -6 8 -13 5
-8 -3 -20 2 -27 11 -7 8 -21 15 -31 15 -11 0 -19 4 -19 8 0 5 -6 9 -13 9 -21
0 -107 37 -107 46 0 5 -4 5 -10 2 -5 -3 -10 3 -10 14 0 17 -6 21 -31 21 -17 0
-28 -4 -24 -10 8 -12 7 -12 -54 1 -47 10 -52 9 -78 -15 -15 -14 -24 -26 -20
-26 4 0 -4 -18 -18 -40 -14 -22 -25 -46 -25 -54 0 -8 -4 -17 -9 -21 -5 -3 -12
-19 -16 -35 -4 -17 -10 -28 -13 -26 -4 2 -7 -6 -8 -17 0 -12 -6 -53 -13 -92
-16 -91 -17 -240 -1 -304 13 -56 4 -107 -11 -61 -5 16 -6 6 -3 -30 6 -68 22
-110 41 -110 8 0 11 -5 7 -12 -4 -7 -3 -8 4 -4 8 5 12 -2 12 -20 0 -22 2 -24
15 -14 13 11 13 14 0 27 -8 8 -15 24 -15 35 0 25 -2 27 38 -39 17 -29 26 -51
19 -50 -7 2 -2 -1 11 -7 34 -15 21 -31 -26 -31 -22 0 -43 -3 -46 -6 -4 -3 -10
-26 -15 -50 l-7 -44 -8 45 c-4 25 -14 79 -22 120 -8 41 -16 95 -18 120 -3 25
-9 77 -15 115 -14 92 -14 435 0 566 6 63 16 110 25 120 8 8 14 20 14 25 0 5
-5 2 -10 -6 -7 -11 -10 -6 -10 20 0 26 3 31 10 20 7 -11 8 -6 4 16 -7 36 24
202 61 324 14 47 28 96 31 110 13 61 112 307 174 430 97 193 236 420 334 545
l31 39 5 -404 c3 -223 3 -409 0 -415z m4366 500 c76 -74 135 -135 130 -135 -5
0 -14 7 -21 16 -10 15 -16 15 -51 3 -21 -8 -41 -17 -44 -20 -3 -3 -20 -14 -37
-23 -21 -10 -33 -24 -33 -36 0 -11 -4 -20 -10 -20 -5 0 -7 -13 -3 -30 l6 -30
-54 0 c-66 0 -99 -8 -99 -24 0 -7 -11 -23 -25 -36 -18 -17 -25 -34 -25 -62 0
-37 -1 -38 -34 -38 -28 0 -35 -4 -38 -22 -2 -15 -11 -24 -25 -26 -13 -2 -23
-10 -23 -18 0 -8 -10 -14 -25 -14 -16 0 -25 -6 -25 -15 0 -8 -7 -15 -15 -15
-8 0 -15 7 -15 15 0 8 -4 15 -10 15 -5 0 -10 -5 -10 -11 0 -16 -26 -39 -44
-39 -9 0 -16 -5 -16 -12 0 -19 -31 -47 -46 -41 -8 3 -14 0 -14 -6 0 -6 5 -11
10 -11 6 0 10 -4 10 -10 0 -5 -7 -10 -15 -10 -8 0 -15 -4 -15 -10 0 -5 -9 -10
-19 -10 -20 0 -31 18 -31 51 0 10 -4 19 -10 19 -5 0 -10 -7 -10 -15 0 -8 -6
-15 -14 -15 -7 0 -19 -7 -26 -15 -8 -9 -8 -15 -2 -15 6 0 13 6 16 13 4 6 4 1
2 -11 -4 -21 -2 -23 22 -18 20 5 23 4 12 -4 -10 -6 -11 -10 -2 -10 6 0 12 -5
12 -11 0 -7 -11 -9 -30 -6 -39 8 -60 0 -60 -25 0 -14 -6 -19 -22 -16 -24 3
-28 23 -5 23 6 1 11 6 10 13 -2 7 2 11 8 9 6 -1 13 7 15 17 2 12 -31 -14 -83
-67 -52 -54 -83 -93 -79 -102 3 -9 0 -12 -10 -8 -10 4 -42 -22 -95 -76 l-79
-82 -51 47 -50 48 183 185 c101 102 336 342 522 534 186 191 342 347 346 347
3 0 69 -61 146 -135z m1038 -24 c16 -17 15 -21 -23 -67 -21 -27 -95 -107 -164
-179 -109 -113 -127 -129 -144 -119 -10 6 -18 19 -18 27 0 15 311 355 326 356
3 1 14 -7 23 -18z m129 -318 c120 -258 210 -578 240 -861 15 -138 10 -162 -36
-162 -32 0 -56 -23 -57 -55 0 -17 2 -18 11 -5 9 12 10 12 7 1 -9 -32 -24 -18
-47 39 -13 33 -30 65 -38 71 -16 14 -17 33 0 23 7 -4 9 -3 4 2 -5 5 -12 9 -15
9 -4 0 -17 10 -29 22 -19 19 -26 20 -64 10 -32 -8 -44 -7 -47 1 -2 7 -11 4
-25 -8 -11 -11 -27 -20 -36 -20 -8 0 -30 -5 -48 -12 -29 -10 -36 -10 -44 2 -8
12 -10 10 -6 -7 5 -25 1 -27 -63 -25 -19 0 -27 -2 -17 -5 18 -5 18 -6 -2 -19
-12 -9 -27 -12 -34 -8 -6 4 -9 4 -5 -1 6 -6 -101 -65 -118 -65 -2 0 -4 171 -4
380 0 296 3 381 13 384 6 3 24 7 39 10 15 4 38 17 50 29 83 84 304 321 311
333 14 25 23 15 60 -63z m-1333 -17 c0 -3 -4 -8 -10 -11 -5 -3 -10 -1 -10 4 0
6 5 11 10 11 6 0 10 -2 10 -4z m744 -165 c17 -18 9 -28 -225 -268 -621 -636
-834 -845 -849 -835 -8 5 -16 15 -18 23 -3 15 166 194 696 737 195 199 360
362 366 362 7 0 21 -9 30 -19z m-1803 -645 c282 -271 335 -324 303 -308 -19
10 -29 4 -89 -59 l-67 -69 -72 64 c-39 35 -165 157 -281 270 l-210 206 75 70
c41 38 78 70 81 70 3 0 120 -110 260 -244z m-3481 -86 c0 -5 -5 -10 -11 -10
-5 0 -7 5 -4 10 3 6 8 10 11 10 2 0 4 -4 4 -10z m6127 -197 c-2 -21 -4 -6 -4
32 0 39 2 55 4 38 2 -18 2 -50 0 -70z m-2943 -10 c45 -42 140 -135 213 -206
l132 -129 -26 -41 c-14 -22 -77 -146 -140 -274 -81 -166 -125 -245 -152 -272
-41 -41 -173 -97 -410 -176 -110 -36 -117 -40 -204 -119 -49 -44 -131 -116
-181 -159 -118 -102 -118 -102 -71 -82 22 10 105 43 185 75 569 224 759 303
791 329 45 38 76 97 189 360 50 117 98 224 107 237 16 25 43 33 43 12 0 -14
-123 -311 -189 -455 -57 -123 -95 -174 -153 -204 -22 -11 -176 -74 -342 -139
-165 -66 -427 -169 -580 -230 -154 -60 -282 -108 -285 -105 -11 12 345 353
595 569 43 37 105 93 136 123 l57 54 63 -6 c56 -6 69 -4 117 22 77 40 114 95
119 177 5 75 -17 127 -74 174 -88 72 -202 65 -285 -18 -67 -67 -85 -140 -53
-225 l14 -40 -287 -281 c-213 -209 -289 -277 -291 -263 -2 10 31 170 72 356
42 186 82 385 90 442 8 57 19 107 23 111 4 4 112 77 238 162 127 86 277 188
334 227 58 39 109 71 115 71 5 0 46 -35 90 -77z m-3129 -38 c100 -41 191 -91
253 -142 l42 -34 0 -202 -1 -202 -44 85 c-49 93 -166 257 -190 267 -18 6 -48
-16 -42 -31 3 -7 33 -52 68 -102 35 -49 81 -126 101 -169 38 -82 66 -170 57
-180 -10 -9 -112 26 -165 56 -152 86 -234 235 -234 423 0 113 34 266 58 266 5
0 49 -16 97 -35z m5774 -41 c48 -141 38 -314 -26 -442 -32 -63 -121 -151 -189
-184 -51 -26 -151 -54 -160 -45 -7 6 59 167 93 227 14 25 53 87 86 139 58 88
60 94 43 107 -12 8 -25 10 -35 4 -28 -14 -126 -158 -188 -275 l-58 -110 -3
219 c-2 160 1 222 10 233 44 53 352 209 393 199 6 -1 21 -33 34 -72z m238 -86
c-3 -7 -5 -2 -5 12 0 14 2 19 5 13 2 -7 2 -19 0 -25z m10 -170 c-2 -18 -4 -6
-4 27 0 33 2 48 4 33 2 -15 2 -42 0 -60z m-1984 30 c6 -8 7 -27 3 -41 -7 -30
-98 -127 -119 -127 -7 0 -23 10 -35 23 l-21 22 70 73 c71 73 84 80 102 50z
m1984 -105 c-3 -10 -5 -4 -5 12 0 17 2 24 5 18 2 -7 2 -21 0 -30z m-20 -40
c-3 -10 -5 -4 -5 12 0 17 2 24 5 18 2 -7 2 -21 0 -30z m-6304 -105 c3 -10 5
-18 2 -18 -6 0 -35 62 -35 74 0 11 20 -24 33 -56z m6278 31 c-5 -13 -10 -19
-10 -12 -1 15 10 45 15 40 3 -2 0 -15 -5 -28z m76 -11 c-3 -8 -6 -5 -6 6 -1
11 2 17 5 13 3 -3 4 -12 1 -19z m-8 -50 c-1 -13 -5 -36 -9 -53 -6 -24 -7 -20
-6 22 0 29 4 53 9 53 4 0 6 -10 6 -22z m-6159 -226 c0 -1 -15 5 -32 15 -36 19
-39 20 -68 22 -25 1 -26 19 -3 36 15 11 23 7 60 -28 24 -23 43 -43 43 -45z
m-20 -23 c0 -14 -17 -10 -23 5 -4 10 -1 13 9 9 7 -3 14 -9 14 -14z m-20 -29
c18 -35 25 -40 55 -40 19 0 35 -2 35 -4 0 -2 3 -11 6 -19 4 -11 -1 -13 -18
-10 -13 2 -41 -5 -62 -16 -40 -21 -40 -21 -61 -1 -12 11 -31 20 -43 20 -31 0
-27 13 11 30 17 8 33 24 35 35 9 56 15 57 42 5z m110 4 c0 -2 -11 2 -25 8 -14
6 -25 15 -25 20 0 5 11 1 25 -8 14 -9 25 -18 25 -20z m5889 0 c7 -19 23 -40
37 -46 25 -12 34 -46 12 -45 -34 1 -47 -5 -53 -24 -7 -21 -7 -21 -26 -1 -10
11 -32 23 -48 27 -49 11 -55 35 -9 40 13 1 26 3 30 4 4 0 13 19 19 41 7 22 15
40 19 40 3 0 12 -16 19 -36z m-6148 3 c-10 -9 -11 -8 -5 6 3 10 9 15 12 12 3
-3 0 -11 -7 -18z m5995 -34 c-10 -10 -19 5 -10 18 6 11 8 11 12 0 2 -7 1 -15
-2 -18z m-129 -39 c-3 -3 -12 -4 -19 -1 -8 3 -5 6 6 6 11 1 17 -2 13 -5z
m-5840 -36 c-3 -8 -6 -5 -6 6 -1 11 2 17 5 13 3 -3 4 -12 1 -19z m221 -82 c-1
-14 -6 -22 -10 -20 -4 3 -8 0 -8 -7 0 -7 -2 -10 -5 -7 -4 4 16 58 22 58 2 0 2
-11 1 -24z m5903 1 c-10 -9 -11 -8 -5 6 3 10 9 15 12 12 3 -3 0 -11 -7 -18z
m-6014 -269 c-3 -8 -6 -5 -6 6 -1 11 2 17 5 13 3 -3 4 -12 1 -19z"/>
<path d="M3740 7860 c-226 -27 -435 -171 -529 -365 -42 -86 -61 -177 -61 -286
0 -117 20 -201 70 -304 88 -181 254 -318 437 -361 86 -20 245 -19 325 2 119
30 248 112 343 216 64 71 137 211 154 296 12 57 14 173 5 209 l-6 22 -37 -24
c-20 -13 -56 -29 -81 -35 -51 -14 -60 -23 -60 -65 0 -56 -37 -165 -75 -223
-149 -224 -422 -289 -652 -156 -59 34 -135 112 -172 177 -47 82 -64 165 -59
278 6 122 40 201 125 290 125 131 304 177 478 122 94 -30 94 -28 29 -86 -31
-29 -80 -68 -108 -88 l-51 -35 -50 23 c-63 29 -87 29 -151 -1 -62 -29 -120
-85 -145 -140 -24 -52 -24 -137 -2 -184 22 -47 149 -179 227 -239 60 -44 62
-45 126 -41 36 2 83 13 105 23 44 22 264 235 314 304 17 24 31 54 31 66 0 28
18 45 50 45 69 1 159 75 179 147 24 85 9 151 -50 218 -64 73 -160 94 -259 56
l-50 -19 6 23 c4 18 -2 28 -28 48 -97 72 -233 104 -378 87z m554 -311 c15 -12
26 -29 24 -39 -4 -22 -471 -470 -490 -470 -7 0 -57 44 -110 97 l-98 97 37 38
c20 21 40 38 44 38 4 0 33 -27 65 -60 32 -33 61 -59 65 -58 4 2 91 82 193 178
166 156 217 198 237 200 4 0 18 -10 33 -21z"/>
<path d="M4850 7723 c-53 -19 -69 -93 -29 -129 20 -18 43 -19 364 -22 287 -2
350 0 379 12 43 18 60 54 45 93 -20 53 -17 52 -394 52 -192 0 -357 -3 -365 -6z"/>
<path d="M4830 7147 c-33 -17 -46 -66 -28 -103 25 -53 47 -55 540 -52 432 3
448 4 467 23 12 11 23 34 27 52 5 27 1 37 -24 63 l-30 30 -464 0 c-350 0 -469
-3 -488 -13z"/>
<path d="M4429 6561 c-16 -16 -29 -39 -29 -51 0 -12 13 -35 29 -51 l29 -29
502 0 501 0 24 25 c36 35 37 76 2 113 l-20 22 -505 0 -504 0 -29 -29z"/>
<path d="M3093 6053 c-30 -6 -63 -49 -63 -82 1 -33 19 -57 54 -71 18 -7 341
-10 965 -10 921 0 939 0 964 20 49 38 43 106 -12 135 -27 13 -138 15 -958 14
-510 -1 -938 -4 -950 -6z"/>
<path d="M3051 5464 c-26 -33 -27 -75 -2 -105 l19 -24 817 0 817 0 19 24 c26
32 25 85 -3 111 -22 20 -30 20 -834 20 l-813 0 -20 -26z"/>
<path d="M3582 4920 l-514 -5 -20 -25 c-25 -31 -19 -87 13 -112 20 -17 62 -18
559 -18 521 0 538 1 563 20 44 35 43 105 -2 129 -30 16 -51 17 -599 11z"/>
<path d="M6585 4918 c-31 -17 -45 -39 -45 -74 0 -88 19 -94 290 -94 220 0 221
0 245 24 50 50 41 111 -20 141 -27 12 -74 15 -242 15 -131 0 -215 -5 -228 -12z"/>
<path d="M3059 4321 c-16 -16 -29 -37 -29 -46 0 -32 30 -73 61 -84 22 -7 178
-11 480 -11 l447 0 31 26 c40 33 43 83 6 119 l-24 25 -471 0 -472 0 -29 -29z"/>
<path d="M5985 4338 c-52 -28 -62 -92 -20 -133 l24 -25 515 0 c364 0 522 3
540 11 30 14 60 72 51 100 -4 11 -16 29 -28 39 -20 19 -37 20 -541 20 -358 -1
-527 -4 -541 -12z"/>
<path d="M6180 4065 c-134 -30 -312 -140 -399 -246 -86 -105 -141 -265 -141
-405 0 -67 24 -189 52 -258 69 -177 227 -332 398 -392 185 -64 344 -55 525 31
177 84 301 225 362 410 21 65 26 100 26 185 0 99 -12 160 -31 160 -12 0 -133
-95 -149 -117 -7 -9 -13 -35 -13 -58 0 -133 -101 -303 -229 -384 -84 -54 -163
-73 -276 -69 -91 3 -107 7 -179 41 -271 128 -370 470 -207 713 100 149 285
231 457 204 37 -6 76 -15 86 -21 52 -28 110 -2 144 64 19 37 11 61 -31 87 -96
60 -268 84 -395 55z"/>
<path d="M6717 3960 c-71 -45 -134 -107 -164 -162 -24 -45 -28 -48 -57 -42
-43 7 -79 -8 -142 -62 l-54 -46 -49 21 c-63 27 -84 26 -146 -3 -120 -55 -184
-196 -140 -303 9 -21 67 -89 138 -159 146 -146 172 -159 265 -129 53 16 74 35
302 257 135 131 268 260 296 286 41 39 53 58 64 100 34 145 -62 272 -208 272
-47 0 -67 -5 -105 -30z m105 -167 c10 -9 18 -21 18 -28 0 -6 -55 -65 -122
-130 -68 -66 -185 -180 -260 -254 l-137 -134 -95 96 c-53 53 -96 100 -96 105
0 12 65 62 79 62 6 0 34 -22 63 -49 l52 -49 185 172 c102 94 201 184 219 199
38 31 67 34 94 10z"/>
<path d="M3081 3769 c-55 -22 -69 -92 -26 -134 l24 -25 391 0 391 0 24 25 c34
33 34 83 -1 116 l-26 24 -376 2 c-229 1 -386 -2 -401 -8z"/>
<path d="M3055 3185 c-35 -34 -34 -88 1 -120 l27 -25 1199 0 1200 0 29 29 c17
18 29 40 29 56 0 16 -12 38 -29 56 l-29 29 -1202 0 -1201 0 -24 -25z"/>
<path d="M2288 6014 c-4 -5 -11 -29 -18 -54 -24 -89 -84 -135 -183 -139 -35
-2 -11 -23 48 -43 79 -26 111 -58 131 -130 9 -32 20 -61 24 -63 4 -2 13 21 20
53 15 67 64 122 129 143 23 8 40 19 39 24 -2 6 -27 20 -58 32 -65 27 -84 49
-109 127 -10 32 -20 55 -23 50z"/>
<path d="M6956 6677 c3 -10 9 -15 12 -12 3 3 0 11 -7 18 -10 9 -11 8 -5 -6z"/>
<path d="M6261 6186 l-23 -24 22 -7 c28 -9 65 26 47 44 -16 16 -21 14 -46 -13z
m33 -10 c-3 -9 -10 -16 -15 -16 -6 0 -5 9 1 21 13 24 24 20 14 -5z"/>
<path d="M7895 5993 c-4 -10 -9 -29 -11 -42 -10 -52 -35 -83 -87 -107 -29 -13
-62 -24 -74 -24 -38 0 -26 -16 25 -35 93 -34 119 -58 140 -127 10 -35 22 -62
28 -61 5 0 15 21 22 45 8 23 18 53 24 66 15 29 69 60 130 74 27 6 47 16 45 21
-2 6 -31 19 -65 31 -81 28 -108 52 -130 116 -20 58 -35 72 -47 43z"/>
<path d="M7970 5696 c0 -2 7 -7 16 -10 8 -3 12 -2 9 4 -6 10 -25 14 -25 6z"/>
<path d="M8280 5616 c0 -8 4 -17 9 -20 5 -4 7 3 4 14 -6 23 -13 26 -13 6z"/>
<path d="M8020 5536 c0 -8 5 -18 10 -21 6 -3 10 3 10 14 0 12 -4 21 -10 21 -5
0 -10 -6 -10 -14z"/>
<path d="M7631 5384 c-1 -21 0 -21 33 -5 18 9 30 17 25 19 -4 2 -17 -1 -28 -7
-14 -8 -21 -8 -24 2 -3 6 -6 2 -6 -9z"/>
</g>
</svg>
